<svg width="325" height="237" viewBox="0 0 325 237" fill="none" xmlns="http://www.w3.org/2000/svg">
<path d="M8.53125 133.728L10.382 138.339C10.382 138.339 52.683 142.241 79.1219 176.647C79.1219 176.647 84.6743 195.448 104.503 187.999C104.503 187.999 147.333 185.16 226.383 236.593L325 99.6779V94.3562L171.657 97.1933L55.0627 101.805L8.53125 133.728Z" fill="#984F23"/>
<path d="M15.6694 124.506L8.53125 133.729C8.53125 133.729 53.477 135.146 83.3513 177.003C83.3513 177.003 87.5819 186.934 103.709 184.452C103.709 184.452 147.068 180.904 226.383 230.918L325 94.3565L259.433 83.7146L83.3513 67.3984L15.6694 124.506Z" fill="#A85C29"/>
<path d="M0 120.041C0 120.041 9.06745 121.769 13.8684 131.618C13.8684 131.618 50.0127 121.009 86.4396 171.019C86.4396 171.019 92.6529 180.49 104.23 177.079C104.23 177.079 144.893 170.638 220.571 222.92L231.038 217.255L194.31 118.737L73.1678 78.9581L28.5525 101.31L0 120.041Z" fill="#ECCAC1"/>
<path d="M322.411 82.9331L231.038 217.256C231.038 217.256 164.531 162.312 95.2119 168.414L95.6482 167.945L209.334 47.2455C209.334 47.2455 266.265 35.2033 321.21 81.9088C321.615 82.2454 322.007 82.5819 322.411 82.9331Z" fill="#FFECE1"/>
<path d="M209.334 47.246L95.2115 168.414C95.2115 168.414 64.4123 107.355 0 120.041L2.87925 117.274L124.266 0.7453C124.266 0.7453 172.744 -1.99091 208.015 45.4317C208.451 46.0316 208.899 46.6315 209.334 47.246Z" fill="#FFECE1"/>
<path d="M209.334 47.246L95.2115 168.414C95.2115 168.414 64.4123 107.355 0 120.041L2.87925 117.274C30.8538 100.637 63.867 100.213 94.7971 94.6393C134.332 87.5135 172.853 70.672 208.015 45.4317C208.451 46.0316 208.899 46.6315 209.334 47.246Z" fill="#FADFD7"/>
<path d="M322.411 82.9331L231.038 217.256C231.038 217.256 164.531 162.312 95.2119 168.414L95.6482 167.945C97.7422 167.448 99.8569 167.024 101.995 166.687C130.614 162.239 158.686 163.98 186.256 175.949C201.668 182.636 216.413 192.088 229.893 204.131C257.594 159.927 288.198 118.972 321.21 81.9088C321.615 82.2454 322.007 82.5819 322.411 82.9331Z" fill="#FADFD7"/>
<path d="M209.559 60.8136C239.827 60.0425 270.209 71.4087 295.813 93.0817" stroke="#E9BEB0" stroke-width="1.33333" stroke-miterlimit="10"/>
<path d="M203.166 68.5969C233.433 67.8258 263.816 79.192 289.419 100.865" stroke="#E9BEB0" stroke-width="1.33333" stroke-miterlimit="10"/>
<path d="M196.774 76.3801C227.043 75.6105 257.425 86.9752 283.029 108.65" stroke="#E9BEB0" stroke-width="1.33333" stroke-miterlimit="10"/>
<path d="M190.382 84.1635C220.65 83.3938 251.033 94.76 276.636 116.433" stroke="#E9BEB0" stroke-width="1.33333" stroke-miterlimit="10"/>
<path d="M183.99 91.9467C214.258 91.1771 244.64 102.543 270.243 124.216" stroke="#E9BEB0" stroke-width="1.33333" stroke-miterlimit="10"/>
<path d="M177.598 99.7314C207.866 98.9603 238.248 110.327 263.852 132" stroke="#E9BEB0" stroke-width="1.33333" stroke-miterlimit="10"/>
<path d="M171.206 107.515C201.474 106.744 231.856 118.11 257.459 139.784" stroke="#E9BEB0" stroke-width="1.33333" stroke-miterlimit="10"/>
<path d="M164.814 115.298C195.083 114.528 225.465 125.893 251.069 147.568" stroke="#E9BEB0" stroke-width="1.33333" stroke-miterlimit="10"/>
<path d="M158.423 123.081C188.69 122.312 219.072 133.678 244.676 155.351" stroke="#E9BEB0" stroke-width="1.33333" stroke-miterlimit="10"/>
<path d="M152.029 130.865C182.297 130.095 212.679 141.461 238.282 163.134" stroke="#E9BEB0" stroke-width="1.33333" stroke-miterlimit="10"/>
<path d="M145.638 138.649C175.906 137.878 206.288 149.244 231.892 170.918" stroke="#E9BEB0" stroke-width="1.33333" stroke-miterlimit="10"/>
<path d="M139.246 146.433C169.514 145.663 199.896 157.028 225.499 178.702" stroke="#E9BEB0" stroke-width="1.33333" stroke-miterlimit="10"/>
<path d="M126.82 16.8273C126.82 16.8273 162.682 10.7652 188.378 49.786" stroke="#E9BEB0" stroke-width="1.33333" stroke-miterlimit="10"/>
<path d="M120.306 22.9702C120.306 22.9702 157.036 17.1789 182.026 56.5508" stroke="#E9BEB0" stroke-width="1.33333" stroke-miterlimit="10"/>
<path d="M113.791 29.1116C113.791 29.1116 151.388 23.5924 175.672 63.317" stroke="#E9BEB0" stroke-width="1.33333" stroke-miterlimit="10"/>
<path d="M107.275 35.2546C107.275 35.2546 145.74 30.0046 169.319 70.0819" stroke="#E9BEB0" stroke-width="1.33333" stroke-miterlimit="10"/>
<path d="M100.761 41.3974C100.761 41.3974 140.092 36.4196 162.964 76.848" stroke="#E9BEB0" stroke-width="1.33333" stroke-miterlimit="10"/>
<path d="M94.2461 47.5405C94.2461 47.5405 134.444 42.8318 156.612 83.6115" stroke="#E9BEB0" stroke-width="1.33333" stroke-miterlimit="10"/>
<path d="M87.7314 53.6832C87.7314 53.6832 128.797 49.2453 150.258 90.3776" stroke="#E9BEB0" stroke-width="1.33333" stroke-miterlimit="10"/>
<path d="M81.2148 59.8261C81.2148 59.8261 123.148 55.6574 143.903 97.1423" stroke="#E9BEB0" stroke-width="1.33333" stroke-miterlimit="10"/>
<path d="M74.7012 65.9691C74.7012 65.9691 117.502 62.0725 137.552 103.909" stroke="#E9BEB0" stroke-width="1.33333" stroke-miterlimit="10"/>
<path d="M68.1855 72.1119C68.1855 72.1119 111.854 68.4846 131.196 110.673" stroke="#E9BEB0" stroke-width="1.33333" stroke-miterlimit="10"/>
<path d="M61.6709 78.2549C61.6709 78.2549 106.205 74.8983 124.843 117.438" stroke="#E9BEB0" stroke-width="1.33333" stroke-miterlimit="10"/>
<path d="M55.1562 84.3977C55.1562 84.3977 100.559 81.3133 118.49 124.203" stroke="#E9BEB0" stroke-width="1.33333" stroke-miterlimit="10"/>
<path d="M48.6416 90.5393C48.6416 90.5393 94.9113 87.7255 112.137 130.969" stroke="#E9BEB0" stroke-width="1.33333" stroke-miterlimit="10"/>
<path d="M42.127 96.6821C42.127 96.6821 89.2648 94.1391 105.783 137.734" stroke="#E9BEB0" stroke-width="1.33333" stroke-miterlimit="10"/>
<path d="M35.6113 102.825C35.6113 102.825 83.6162 100.551 99.4292 144.499" stroke="#E9BEB0" stroke-width="1.33333" stroke-miterlimit="10"/>
<path d="M19.1367 104.114L125.312 3.3852C125.312 3.3852 159.886 -2.10475 203.87 43.4566C203.87 43.4566 155.998 3.93391 127.153 5.8551L19.1367 104.114Z" fill="#FFF3EE"/>
<path d="M128.586 135.127L211.44 49.7693C211.44 49.7693 257.673 40.437 315.16 81.8809C315.16 81.8809 253.787 49.2206 215.327 53.063L128.586 135.127Z" fill="#FFF3EE"/>
<path d="M300.675 107.764C296.199 113.532 291.724 119.298 287.248 125.068C286.766 125.688 276.967 121.395 275.753 121C271.896 119.739 268.015 118.577 264.114 117.51C256.134 115.33 248.069 113.555 239.95 112.187C223.711 109.454 207.254 108.355 190.818 108.917C182.021 109.218 173.261 110.801 164.502 111.178C170.71 107.231 179.623 106.169 186.488 104.554C195.655 102.398 204.915 100.827 214.214 99.842C232.723 97.8828 251.384 98.2428 269.772 100.938C280.189 102.464 290.516 104.738 300.675 107.764Z" fill="url(#paint0_linear)"/>
<path d="M291.695 18.6377L180.167 93.6578L177.701 87.0573L286.295 14.0096C286.295 14.0096 289.122 14.1734 291.695 18.6377Z" fill="#FFDBA8"/>
<path d="M293.165 21.7914C293.63 23.0322 293.956 24.1749 294.174 25.2431L182.638 100.271L180.168 93.6583L291.695 18.6382C292.202 19.5102 292.702 20.5506 293.165 21.7914Z" fill="#FFCF81"/>
<path d="M294.175 25.2436C295.301 30.6809 293.702 33.8341 293.702 33.8341L185.109 106.882L182.639 100.27L294.175 25.2436Z" fill="#FFB25A"/>
<path d="M184.223 95.6276C184.621 96.6943 184.928 97.6761 185.154 98.5774L171.044 107.016C170.447 105.608 169.704 104.395 168.794 103.495L177.701 87.0576C177.701 87.0576 181.312 87.8404 184.223 95.6276Z" fill="#FFECD7"/>
<path d="M171.044 107.016L164.887 110.7L168.794 103.496C169.704 104.395 170.448 105.608 171.044 107.016Z" fill="#84422D"/>
<path d="M185.154 98.5768C186.619 104.299 185.109 106.882 185.109 106.882L171.863 109.394C171.634 108.563 171.362 107.76 171.044 107.017L185.154 98.5768Z" fill="#F8D7BF"/>
<path d="M171.864 109.394L164.875 110.721L164.887 110.7L171.045 107.016C171.363 107.761 171.634 108.564 171.864 109.394Z" fill="#6D3020"/>
<path d="M316.463 6.11982C316.947 7.41476 317.221 8.76823 317.306 10.1275L295.906 24.524L290.836 10.9543L305.371 1.17857C309.446 -1.56348 314.415 0.640108 316.463 6.11982Z" fill="#FFAEAE"/>
<path d="M317.307 10.1278C317.414 11.6496 317.275 13.1596 316.921 14.5848C316.247 17.2785 314.814 19.6343 312.78 21.0009L298.244 30.7795L295.907 24.5229L317.307 10.1278Z" fill="#FF9595"/>
<path d="M301.43 16.2329C304.247 23.7714 301.974 28.2707 301.974 28.2707L293.701 33.8339C293.701 33.8339 295.3 30.6806 294.174 25.2434C293.954 24.1752 293.629 23.031 293.165 21.7917C292.701 20.5509 292.202 19.5105 291.695 18.6384C289.121 14.1727 286.294 14.0103 286.294 14.0103L294.566 8.44575C294.566 8.44575 298.608 8.68279 301.43 16.2329Z" fill="#F07C34"/>
<path d="M294.328 21.0327C295.485 24.2517 295.882 27.9522 295.449 31.4785C296.584 30.643 297.717 29.8105 298.85 28.9764C298.989 23.6665 297.113 18.3316 293.967 15.1023C293.204 14.3195 292.342 13.6537 291.407 13.3201C290.823 13.1094 289.193 13.1211 290.088 14.3297C290.861 15.3745 291.78 16.1514 292.507 17.2942C293.229 18.4311 293.845 19.688 294.328 21.0327Z" fill="#DA6821"/>
<path d="M298.491 18.8493C299.569 21.783 299.974 25.1542 299.636 28.3923C300.279 28.1611 300.901 27.6563 301.201 26.8589C301.47 26.1434 301.45 25.3005 301.385 24.506C301.072 20.671 299.841 16.9807 297.92 14.1114C297.534 13.5364 294.544 9.95588 295.188 12.6028C295.446 13.6651 296.06 14.3206 296.6 15.121C297.352 16.2404 297.993 17.4973 298.491 18.8493Z" fill="#DA6821"/>
<path d="M299.458 7.24078C299.061 7.61243 298.645 8.36599 298.994 8.81519C299.192 9.06833 299.508 9.00833 299.774 8.93078C302.362 8.18309 304.949 7.43392 307.536 6.68622C308.5 6.40821 313.358 5.74977 312.159 3.50228C311.162 1.63377 307.561 2.81311 306.309 3.19355C303.862 3.94125 301.518 5.31227 299.458 7.24078Z" fill="#FFCBCB"/>
<defs>
<linearGradient id="paint0_linear" x1="164.669" y1="116.863" x2="300.825" y2="112.874" gradientUnits="userSpaceOnUse">
<stop stop-color="#FADFD7"/>
<stop offset="1" stop-color="white"/>
</linearGradient>
</defs>
</svg>
